<svg width="1512" height="982" viewBox="0 0 1512 982" fill="none" xmlns="http://www.w3.org/2000/svg">
<g clip-path="url(#clip0_80_60)">
<rect width="1512" height="982" fill="#FFF5E7"/>
<g opacity="0.8" filter="url(#filter0_f_80_60)">
<path d="M-199.529 539.069C-273.058 557.409 -295.301 607.789 -360.305 646.229C-467.941 709.879 -602.755 669.699 -649.702 784.226C-700.662 908.542 -606.865 1008.8 -503.043 1095.68C-308.842 1258.2 18.9231 1193.41 137.709 971.562L138.515 970.056C178.149 896.039 207.36 841.486 185.549 760.327C167.823 694.367 133.18 663.467 79.6724 620.017C-7.96973 548.849 -89.3421 511.586 -199.529 539.069Z" fill="url(#paint0_linear_80_60)"/>
</g>
<g opacity="0.8" filter="url(#filter1_f_80_60)">
<path d="M1668.49 128.785C1598.73 99.1784 1550.65 126.025 1475.6 117.601C1351.33 103.651 1267.85 -9.57478 1161.43 53.6323C1045.91 122.242 1060.48 258.761 1091.1 390.631C1148.38 637.295 1449.13 782.826 1677.51 677.145L1679.06 676.427C1755.26 641.17 1811.42 615.185 1842.85 537.243C1868.39 473.899 1859.32 428.372 1842.74 361.469C1815.58 251.886 1773.03 173.153 1668.49 128.785Z" fill="url(#paint1_linear_80_60)"/>
</g>
</g>
<defs>
<filter id="filter0_f_80_60" x="-1114" y="80" width="1757" height="1556.34" filterUnits="userSpaceOnUse" color-interpolation-filters="sRGB">
<feFlood flood-opacity="0" result="BackgroundImageFix"/>
<feBlend mode="normal" in="SourceGraphic" in2="BackgroundImageFix" result="shape"/>
<feGaussianBlur stdDeviation="225" result="effect1_foregroundBlur_80_60"/>
</filter>
<filter id="filter1_f_80_60" x="669.357" y="-365.41" width="1589.42" height="1477.45" filterUnits="userSpaceOnUse" color-interpolation-filters="sRGB">
<feFlood flood-opacity="0" result="BackgroundImageFix"/>
<feBlend mode="normal" in="SourceGraphic" in2="BackgroundImageFix" result="shape"/>
<feGaussianBlur stdDeviation="200" result="effect1_foregroundBlur_80_60"/>
</filter>
<linearGradient id="paint0_linear_80_60" x1="-235.5" y1="530" x2="-235.5" y2="1186.34" gradientUnits="userSpaceOnUse">
<stop stop-color="#F29F58"/>
<stop offset="0.456731" stop-color="#D26D81"/>
<stop offset="1" stop-color="#EFB6C8"/>
</linearGradient>
<linearGradient id="paint1_linear_80_60" x1="1645.22" y1="99.8934" x2="1250.2" y2="624.049" gradientUnits="userSpaceOnUse">
<stop stop-color="#A385EB"/>
<stop offset="0.456731" stop-color="#A888B5"/>
<stop offset="1" stop-color="#EFB6C8"/>
</linearGradient>
<clipPath id="clip0_80_60">
<rect width="1512" height="982" fill="white"/>
</clipPath>
</defs>
</svg>
