<svg width="1512" height="982" viewBox="0 0 1512 982" fill="none" xmlns="http://www.w3.org/2000/svg">
<g clip-path="url(#clip0_17_106)">
<rect width="1512" height="982" fill="#FFF5E7"/>
<g opacity="0.8" filter="url(#filter0_f_17_106)">
<path d="M-102.529 500.069C-176.058 518.409 -198.301 568.789 -263.305 607.229C-370.941 670.879 -505.755 630.699 -552.702 745.226C-603.662 869.542 -509.865 969.801 -406.043 1056.68C-211.842 1219.2 115.923 1154.41 234.709 932.562L235.515 931.056C275.149 857.039 304.36 802.486 282.549 721.327C264.823 655.367 230.18 624.467 176.672 581.017C89.0303 509.849 7.6579 472.586 -102.529 500.069Z" fill="url(#paint0_linear_17_106)"/>
</g>
<g opacity="0.8" filter="url(#filter1_f_17_106)">
<path d="M1261.49 -184.215C1191.73 -213.822 1143.65 -186.975 1068.6 -195.399C944.331 -209.349 860.85 -322.575 754.43 -259.368C638.913 -190.758 653.479 -54.2387 684.102 77.6311C741.383 324.295 1042.13 469.826 1270.51 364.145L1272.06 363.427C1348.26 328.17 1404.42 302.185 1435.85 224.243C1461.39 160.899 1452.32 115.372 1435.74 48.4689C1408.58 -61.1139 1366.03 -139.847 1261.49 -184.215Z" fill="url(#paint1_linear_17_106)"/>
</g>
</g>
<defs>
<filter id="filter0_f_17_106" x="-1017" y="41" width="1757" height="1556.34" filterUnits="userSpaceOnUse" color-interpolation-filters="sRGB">
<feFlood flood-opacity="0" result="BackgroundImageFix"/>
<feBlend mode="normal" in="SourceGraphic" in2="BackgroundImageFix" result="shape"/>
<feGaussianBlur stdDeviation="225" result="effect1_foregroundBlur_17_106"/>
</filter>
<filter id="filter1_f_17_106" x="262.356" y="-678.41" width="1589.42" height="1477.45" filterUnits="userSpaceOnUse" color-interpolation-filters="sRGB">
<feFlood flood-opacity="0" result="BackgroundImageFix"/>
<feBlend mode="normal" in="SourceGraphic" in2="BackgroundImageFix" result="shape"/>
<feGaussianBlur stdDeviation="200" result="effect1_foregroundBlur_17_106"/>
</filter>
<linearGradient id="paint0_linear_17_106" x1="-138.5" y1="491" x2="-138.5" y2="1147.34" gradientUnits="userSpaceOnUse">
<stop stop-color="#F29F58"/>
<stop offset="0.456731" stop-color="#D26D81"/>
<stop offset="1" stop-color="#EFB6C8"/>
</linearGradient>
<linearGradient id="paint1_linear_17_106" x1="1238.22" y1="-213.107" x2="843.203" y2="311.049" gradientUnits="userSpaceOnUse">
<stop stop-color="#A385EB"/>
<stop offset="0.456731" stop-color="#A888B5"/>
<stop offset="1" stop-color="#EFB6C8"/>
</linearGradient>
<clipPath id="clip0_17_106">
<rect width="1512" height="982" fill="white"/>
</clipPath>
</defs>
</svg>
