<svg width="1512" height="982" viewBox="0 0 1512 982" fill="none" xmlns="http://www.w3.org/2000/svg">
<g clip-path="url(#clip0_77_2)">
<rect width="1512" height="982" fill="#FFF5E7"/>
<g opacity="0.8" filter="url(#filter0_f_77_2)">
<path d="M-110.529 61.0693C-184.058 79.4094 -206.301 129.789 -271.305 168.229C-378.941 231.879 -513.755 191.699 -560.702 306.226C-611.662 430.542 -517.865 530.801 -414.043 617.683C-219.842 780.195 107.923 715.414 226.709 493.562L227.515 492.056C267.149 418.039 296.36 363.486 274.549 282.327C256.823 216.367 222.18 185.467 168.672 142.017C81.0303 70.8494 -0.342102 33.5859 -110.529 61.0693Z" fill="url(#paint0_linear_77_2)"/>
</g>
<g opacity="0.8" filter="url(#filter1_f_77_2)">
<path d="M1753.49 630.785C1683.73 601.178 1635.65 628.025 1560.6 619.601C1436.33 605.651 1352.85 492.425 1246.43 555.632C1130.91 624.242 1145.48 760.761 1176.1 892.631C1233.38 1139.29 1534.13 1284.83 1762.51 1179.14L1764.06 1178.43C1840.26 1143.17 1896.42 1117.19 1927.85 1039.24C1953.39 975.899 1944.32 930.372 1927.74 863.469C1900.58 753.886 1858.03 675.153 1753.49 630.785Z" fill="url(#paint1_linear_77_2)"/>
</g>
</g>
<defs>
<filter id="filter0_f_77_2" x="-1025" y="-398" width="1757" height="1556.34" filterUnits="userSpaceOnUse" color-interpolation-filters="sRGB">
<feFlood flood-opacity="0" result="BackgroundImageFix"/>
<feBlend mode="normal" in="SourceGraphic" in2="BackgroundImageFix" result="shape"/>
<feGaussianBlur stdDeviation="225" result="effect1_foregroundBlur_77_2"/>
</filter>
<filter id="filter1_f_77_2" x="754.356" y="136.59" width="1589.42" height="1477.45" filterUnits="userSpaceOnUse" color-interpolation-filters="sRGB">
<feFlood flood-opacity="0" result="BackgroundImageFix"/>
<feBlend mode="normal" in="SourceGraphic" in2="BackgroundImageFix" result="shape"/>
<feGaussianBlur stdDeviation="200" result="effect1_foregroundBlur_77_2"/>
</filter>
<linearGradient id="paint0_linear_77_2" x1="-146.5" y1="52" x2="-146.5" y2="708.337" gradientUnits="userSpaceOnUse">
<stop stop-color="#F29F58"/>
<stop offset="0.456731" stop-color="#D26D81"/>
<stop offset="1" stop-color="#EFB6C8"/>
</linearGradient>
<linearGradient id="paint1_linear_77_2" x1="1730.22" y1="601.893" x2="1335.2" y2="1126.05" gradientUnits="userSpaceOnUse">
<stop stop-color="#A385EB"/>
<stop offset="0.456731" stop-color="#A888B5"/>
<stop offset="1" stop-color="#EFB6C8"/>
</linearGradient>
<clipPath id="clip0_77_2">
<rect width="1512" height="982" fill="white"/>
</clipPath>
</defs>
</svg>
