<svg width="40" height="41" viewBox="0 0 40 41" fill="none" xmlns="http://www.w3.org/2000/svg">
<path d="M34.0532 22.3245V32.3145C34.0248 33.4762 33.4615 34.1178 32.2982 34.2145C30.9632 34.3245 29.6215 34.3945 28.2815 34.4745C25.5815 34.6412 22.8809 34.8045 20.1798 34.9645C17.7882 35.1062 15.3965 35.2312 13.0082 35.3928C11.9515 35.4612 11.1198 35.1278 10.5348 34.2212C10.3615 33.9528 10.1398 33.7112 9.94316 33.4545C8.94316 32.1645 7.95149 30.8712 6.94649 29.5878C6.27105 28.7596 5.91243 27.718 5.93483 26.6495C5.96816 20.9662 5.94816 15.2862 5.95149 9.60451C5.95149 9.39006 5.96816 9.17673 6.00149 8.96451C6.15483 8.13117 6.67149 7.61451 7.51483 7.53451C8.89483 7.40451 10.2965 7.31451 11.6882 7.20951L18.3382 6.71951C20.4682 6.56451 22.5982 6.41617 24.7282 6.24784C25.7958 6.16127 26.8573 6.47627 27.7048 7.13117C29.5815 8.49284 31.4882 9.80951 33.3915 11.1378C33.6118 11.2792 33.7903 11.4769 33.9084 11.7105C34.0265 11.944 34.0799 12.205 34.0632 12.4662C34.0448 15.7512 34.0532 19.0378 34.0532 22.3245ZM32.1165 22.4528V13.9462C32.1165 13.1262 31.8282 12.8428 31.0332 12.8895L24.1165 13.2828L15.6332 13.7795C14.6365 13.8362 13.6398 13.8973 12.6432 13.9628C12.1148 13.9995 11.8748 14.2328 11.7965 14.7512C11.7765 14.9012 11.7682 15.0512 11.7715 15.2012V31.6345C11.7715 32.9128 12.1115 33.2328 13.3948 33.1578C14.6782 33.0828 15.9598 32.9995 17.2565 32.9245L30.9882 32.1362C31.7248 32.0945 32.0598 31.7695 32.1182 31.0378C32.1282 30.9095 32.1182 30.7812 32.1182 30.6445L32.1165 22.4528ZM30.0382 10.9262L30.0832 10.8412C29.9825 10.7175 29.8709 10.6032 29.7498 10.4995C28.8398 9.83451 27.9198 9.18284 27.0115 8.52784C26.4165 8.07284 25.6782 7.84451 24.9298 7.88617C23.4398 7.97617 21.9532 8.09451 20.4632 8.20284L10.8898 8.89784C10.2032 8.94784 9.50816 9.00117 8.83816 9.08117C8.76319 9.09616 8.69265 9.12815 8.63198 9.17467C8.5713 9.22118 8.5221 9.281 8.48816 9.34951C8.45983 9.43117 8.59483 9.61451 8.69983 9.69951C9.44983 10.3045 10.2132 10.8995 10.9698 11.4962C11.3782 11.8362 11.8998 12.0128 12.4298 11.9912C12.6882 11.9795 12.9465 11.9912 13.2032 11.9678L20.1498 11.5412L29.3798 10.9978C29.5998 10.9723 29.8193 10.9484 30.0382 10.9262Z" fill="black"/>
<path d="M25.8785 25.2978V17.5312C25.4585 17.4812 25.0568 17.4228 24.6518 17.3928C24.4302 17.3762 24.3785 17.2762 24.4018 17.0812C24.4232 16.8697 24.5161 16.6718 24.6652 16.5202C24.8143 16.3687 25.0107 16.2726 25.2218 16.2478C26.5602 16.1478 27.8985 16.0795 29.2302 15.9995C29.4285 16.6612 29.2302 16.9862 28.5968 17.1112C27.8985 17.2562 27.8985 17.2562 27.8985 17.9645V29.3728C27.8985 29.6378 27.8285 29.7995 27.5785 29.8778C27.138 30.0431 26.689 30.185 26.2335 30.3028C25.5018 30.4562 24.8535 30.2528 24.4185 29.6212C23.8128 28.7484 23.2211 27.8661 22.6435 26.9745C21.3035 24.9012 19.9802 22.8195 18.6485 20.7412C18.6218 20.6978 18.5852 20.6562 18.5102 20.5528C18.4935 20.6962 18.4785 20.7778 18.4785 20.8628V28.6295C18.4785 28.8578 18.5518 28.9512 18.7718 28.9928C19.2652 29.0895 19.7568 29.2078 20.2385 29.3162C20.23 29.558 20.1341 29.7885 19.9687 29.9651C19.8032 30.1416 19.5793 30.2521 19.3385 30.2762C18.9344 30.3308 18.5277 30.3642 18.1202 30.3762C17.1335 30.4362 16.1468 30.4828 15.1618 30.5528C14.8735 30.5728 14.8152 30.4528 14.8652 30.2178C14.8805 30.077 14.9393 29.9443 15.0334 29.8383C15.1274 29.7323 15.2521 29.6582 15.3902 29.6262C15.7002 29.5512 16.0068 29.4528 16.3135 29.3662V18.2162L14.9318 18.0928C14.8857 17.949 14.8732 17.7965 14.8953 17.647C14.9174 17.4976 14.9736 17.3552 15.0594 17.2309C15.1452 17.1066 15.2585 17.0037 15.3904 16.93C15.5223 16.8564 15.6693 16.814 15.8202 16.8062C17.0285 16.7095 18.2452 16.6728 19.4502 16.5362C19.9652 16.4795 20.2052 16.6695 20.4635 17.0678C22.1685 19.6945 23.8968 22.3112 25.6185 24.9295L25.8785 25.2978Z" fill="black"/>
</svg>
