<svg width="100" height="26" viewBox="0 0 100 26" fill="none" xmlns="http://www.w3.org/2000/svg">
<path d="M1 12.6925C2.53737 10.1826 11.6967 3.68774 20.0628 2.22207C26.8633 1.03067 32.2146 -0.385859 37.6668 3.8497C40.3884 5.96395 42.9253 10.9367 42.9253 10.9367C42.9253 10.9367 44.0561 14.3712 43.3184 16.3641C42.7383 17.9312 41.9639 18.6987 40.6076 19.6747C37.4999 21.911 31.8693 20.4606 30.804 19.5902C29.7386 18.7199 29.369 16.3868 29.8227 14.358C30.6234 10.7776 37.6755 9.20137 37.6755 9.20137C37.6755 9.20137 50.8813 5.79315 59.0793 7.54753C62.9182 8.36906 65.3301 8.68266 68.5423 10.9396C71.2872 12.8684 74.2695 17.3424 74.2695 17.3424C74.2695 17.3424 77.7744 21.5 80.7713 23.0726C84.9717 25.2767 92.7907 24.8254 92.7907 24.8254C92.7907 24.8254 95.915 23.9549 97.0767 23.1803C97.662 22.7902 98.4413 22.0121 98.8325 21.4275" stroke="black" stroke-width="2" stroke-linecap="round"/>
</svg>
